<svg width="166" height="40" viewBox="0 0 166 40" fill="none" xmlns="http://www.w3.org/2000/svg">
<path d="M27.2753 8.96944C29.3115 20.5079 25.4653 23.9339 22.912 26.8104C25.9372 13.7788 17.5144 9.09872 12.9249 8.38767C10.2423 8.12911 4.70253 9.10519 4.0044 15.078C3.13174 22.5441 9.82212 24.6773 14.4763 26.8104C18.1996 28.517 20.7465 31.1414 21.5545 32.2403C28.4388 29.1375 35.517 24.3864 36.0988 17.3082C36.5642 11.6456 31.3154 9.00176 28.6327 8.38767L27.2753 8.96944Z" fill="url(#paint0_linear_97_2188)"/>
<path d="M24.6344 2.69177C25.1564 2.57201 25.6765 2.89799 25.7963 3.41993C25.916 3.94187 25.5901 4.462 25.0681 4.58177C24.3758 4.74062 23.6425 5.46701 22.9808 6.64012C22.3496 7.75917 21.9192 9.04474 21.7222 9.87282C21.5982 10.3938 21.0754 10.7156 20.5545 10.5917C20.0335 10.4678 19.7116 9.94496 19.8356 9.42399C20.0644 8.46197 20.5524 6.99832 21.2919 5.68736C22.0009 4.43044 23.091 3.04591 24.6344 2.69177Z" fill="#EE3771"/>
<path d="M21.26 9.22519C23.5535 7.25077 27.2141 6.63839 30.4622 7.52741C34.0936 8.52143 37.3519 11.4184 37.9578 16.549C38.5668 21.7068 35.6488 26.2189 31.967 29.681C28.2654 33.1615 23.615 35.7562 20.3048 37.1135L19.2932 37.5284L19.0023 36.4743C18.8527 35.9324 18.6617 35.5596 18.3499 35.1996C18.0168 34.8152 17.5138 34.4082 16.6699 33.8516C15.8275 33.2962 14.7158 32.6358 13.1957 31.7236C11.6844 30.8167 9.79549 29.6761 7.43122 28.1771C-2.76121 21.715 1.98406 7.1631 12.4946 7.16305C15.1583 7.16305 16.9871 7.42832 18.4345 7.8878C19.5786 8.25098 20.4506 8.72629 21.26 9.22519ZM29.9503 9.39791C27.3796 8.69426 24.6749 9.15028 22.9342 10.3776C25.5589 12.5341 26.4453 15.4881 26.3871 18.4036C26.3226 21.6289 25.1126 24.8681 23.8112 27.1779C23.5483 27.6444 22.9572 27.8096 22.4906 27.5468C22.0241 27.284 21.8589 26.6927 22.1217 26.2261C23.3204 24.0985 24.3921 21.1747 24.4482 18.365C24.5027 15.6403 23.6124 13.0868 20.99 11.35L20.8639 11.2678C19.8665 10.6306 19.0378 10.1139 17.8478 9.73614C16.6515 9.35636 15.0358 9.10229 12.4946 9.10229C4.03344 9.10234 -0.174022 21.0592 8.46958 26.5393C10.8143 28.0259 12.6877 29.1572 14.1936 30.0608C15.6907 30.9592 16.8511 31.6482 17.7376 32.2328C18.6224 32.8163 19.3049 33.3404 19.8157 33.9299C20.0924 34.2493 20.3089 34.5771 20.4834 34.9264C23.5344 33.559 27.4736 31.2441 30.6385 28.2682C34.1496 24.9666 36.5335 21.0251 36.0318 16.7765C35.5269 12.5008 32.8906 10.2027 29.9503 9.39791Z" fill="#EE3771"/>
<ellipse cx="10.9857" cy="12.4604" rx="1.26051" ry="1.84228" fill="white"/>
<path d="M52.1074 14.0469C52.1074 13.8008 52.2275 13.6777 52.4678 13.6777H56.4141C57.0645 13.6777 57.7031 13.748 58.3301 13.8887C58.9629 14.0293 59.5371 14.2578 60.0527 14.5742C60.5684 14.8848 60.9785 15.3008 61.2832 15.8223C61.5879 16.3379 61.7402 16.9736 61.7402 17.7295C61.7402 17.9404 61.7227 18.1572 61.6875 18.3799C61.6523 18.5967 61.6025 18.8076 61.5381 19.0127C61.3154 19.7158 60.9521 20.2812 60.4482 20.709C59.9443 21.1309 59.3613 21.4355 58.6992 21.623C58.043 21.8105 57.375 21.9043 56.6953 21.9043H54.4717C54.4014 21.9043 54.3662 21.9395 54.3662 22.0098L54.3398 25.6484C54.3398 25.8828 54.2197 26 53.9795 26H52.459C52.2188 26 52.0986 25.877 52.0986 25.6309C52.0986 25.3145 52.1045 24.998 52.1162 24.6816C52.1279 24.3594 52.1367 24.04 52.1426 23.7236C52.1602 22.3877 52.1689 21.0459 52.1689 19.6982C52.1689 18.4385 52.1602 17.1816 52.1426 15.9277C52.1367 15.6172 52.1279 15.3037 52.1162 14.9873C52.1104 14.6709 52.1074 14.3574 52.1074 14.0469ZM54.375 19.7773H56.7217C57.0615 19.7773 57.4102 19.7334 57.7676 19.6455C58.1309 19.5518 58.4619 19.4053 58.7607 19.2061C59.0596 19.001 59.2764 18.7314 59.4111 18.3975C59.4463 18.3096 59.4785 18.21 59.5078 18.0986C59.5371 17.9873 59.5518 17.8848 59.5518 17.791C59.5518 17.709 59.5371 17.6123 59.5078 17.501C59.4785 17.3838 59.4492 17.2842 59.4199 17.2021C59.2852 16.8682 59.0742 16.5986 58.7871 16.3936C58.5059 16.1885 58.1895 16.0391 57.8379 15.9453C57.4922 15.8457 57.1523 15.7959 56.8184 15.7959H54.3574C54.3633 16.458 54.3662 17.123 54.3662 17.791C54.3721 18.4531 54.375 19.1152 54.375 19.7773ZM66.9873 26.2109C66.1318 26.2109 65.3848 26.041 64.7461 25.7012C64.1133 25.3613 63.6211 24.8779 63.2695 24.251C62.918 23.624 62.7422 22.8799 62.7422 22.0186C62.7422 21.2158 62.9092 20.4951 63.2432 19.8564C63.5771 19.2178 64.0488 18.7139 64.6582 18.3447C65.2676 17.9697 65.9824 17.7822 66.8027 17.7822C67.8164 17.7822 68.6104 18.0664 69.1846 18.6348C69.7646 19.2031 70.1572 19.959 70.3623 20.9023C70.3682 20.9199 70.3711 20.9492 70.3711 20.9902C70.3711 21.0781 70.3477 21.1455 70.3008 21.1924C70.2598 21.2334 70.2041 21.2686 70.1338 21.2979C69.9346 21.3916 69.7236 21.4736 69.501 21.5439C69.2783 21.6143 69.0615 21.6904 68.8506 21.7725C68.2354 22.001 67.6172 22.2266 66.9961 22.4492C66.375 22.666 65.7598 22.8975 65.1504 23.1436C65.1035 23.167 65.0801 23.1963 65.0801 23.2314C65.0801 23.249 65.0859 23.2695 65.0977 23.293C65.332 23.7148 65.6543 24.0283 66.0645 24.2334C66.4746 24.4385 66.9141 24.541 67.3828 24.541C67.752 24.541 68.0947 24.4824 68.4111 24.3652C68.7334 24.248 69.0498 24.1016 69.3604 23.9258C69.4014 23.9023 69.4424 23.8818 69.4834 23.8643C69.5244 23.8467 69.5654 23.8379 69.6064 23.8379C69.6885 23.8379 69.75 23.8643 69.791 23.917C69.8379 23.9639 69.876 24.0195 69.9053 24.084C69.9287 24.125 69.9727 24.2188 70.0371 24.3652C70.1074 24.5059 70.1719 24.6494 70.2305 24.7959C70.2949 24.9365 70.3271 25.0273 70.3271 25.0684C70.3271 25.1328 70.3096 25.1855 70.2744 25.2266C70.2393 25.2676 70.1982 25.3057 70.1514 25.3408C69.7354 25.6279 69.2285 25.8447 68.6309 25.9912C68.0391 26.1377 67.4912 26.2109 66.9873 26.2109ZM64.7812 21.9307C65.373 21.7256 65.9648 21.5205 66.5566 21.3154C67.1484 21.1104 67.7373 20.9053 68.3232 20.7002C68.1768 20.3779 67.9717 20.0967 67.708 19.8564C67.4502 19.6162 67.1309 19.4961 66.75 19.4961C66.3047 19.4961 65.9355 19.6162 65.6426 19.8564C65.3496 20.0967 65.1328 20.4043 64.9922 20.7793C64.8516 21.1484 64.7812 21.5322 64.7812 21.9307ZM74.8975 26.167C74.1357 26.167 73.4971 25.9854 72.9814 25.6221C72.4658 25.2588 72.0762 24.7783 71.8125 24.1807C71.5547 23.5771 71.4258 22.9238 71.4258 22.2207V22.0801C71.4375 21.3418 71.5898 20.6475 71.8828 19.9971C72.1816 19.3467 72.6123 18.8223 73.1748 18.4238C73.7373 18.0195 74.417 17.8174 75.2139 17.8174C75.7061 17.8174 76.1631 17.9111 76.585 18.0986C77.0127 18.2803 77.4111 18.5293 77.7803 18.8457C77.8213 18.8867 77.8564 18.9072 77.8857 18.9072C77.9561 18.9072 77.9883 18.834 77.9824 18.6875C77.9824 18.541 78.0029 18.3945 78.0439 18.248C78.0908 18.1016 78.208 18.0283 78.3955 18.0283H79.6348C79.875 18.0283 79.9951 18.1484 79.9951 18.3887C79.9951 18.6406 79.9922 18.8926 79.9863 19.1445C79.9863 19.3965 79.9863 19.6484 79.9863 19.9004C79.9863 20.5449 79.9893 21.1924 79.9951 21.8428C80.0068 22.4932 80.0156 23.1406 80.0215 23.7852C80.0273 24.0898 80.0332 24.3975 80.0391 24.708C80.0508 25.0127 80.0566 25.3203 80.0566 25.6309C80.0566 25.877 79.9365 26 79.6963 26H78.3164C78.1582 26 78.0557 25.9502 78.0088 25.8506C77.9619 25.7451 77.9414 25.6221 77.9473 25.4814C77.9531 25.3408 77.9531 25.2148 77.9473 25.1035C77.9473 25.0859 77.9443 25.0566 77.9385 25.0156C77.9326 24.9746 77.915 24.9541 77.8857 24.9541C77.8623 24.9541 77.8389 24.9629 77.8154 24.9805C77.7979 24.998 77.7803 25.0127 77.7627 25.0244C77.3525 25.3701 76.9102 25.6484 76.4355 25.8594C75.9609 26.0645 75.4482 26.167 74.8975 26.167ZM75.7939 24.2949C76.21 24.2949 76.5938 24.21 76.9453 24.04C77.3027 23.8643 77.5811 23.5889 77.7803 23.2139C77.792 23.1904 77.8184 23.1318 77.8594 23.0381C77.9062 22.9385 77.9297 22.877 77.9297 22.8535C77.9297 22.6484 77.9268 22.4434 77.9209 22.2383C77.9209 22.0332 77.9209 21.8311 77.9209 21.6318C77.9209 21.5381 77.9238 21.4355 77.9297 21.3242C77.9355 21.207 77.9326 21.1045 77.9209 21.0166C77.915 20.9756 77.8916 20.9141 77.8506 20.832C77.8154 20.75 77.7891 20.6914 77.7715 20.6562C77.5664 20.2871 77.2764 20.0117 76.9014 19.8301C76.5264 19.6484 76.1338 19.5576 75.7236 19.5576C75.29 19.5576 74.9092 19.666 74.5811 19.8828C74.2529 20.0996 73.9951 20.3867 73.8076 20.7441C73.626 21.0957 73.5352 21.4824 73.5352 21.9043C73.5352 22.3262 73.6318 22.7188 73.8252 23.082C74.0186 23.4453 74.2852 23.7383 74.625 23.9609C74.9707 24.1836 75.3604 24.2949 75.7939 24.2949ZM86.9385 23.9785C87.0205 23.9785 87.082 24.0049 87.123 24.0576C87.1699 24.1104 87.208 24.1689 87.2373 24.2334C87.2607 24.2803 87.3076 24.3945 87.3779 24.5762C87.4482 24.7578 87.5127 24.9365 87.5713 25.1123C87.6357 25.2881 87.668 25.3936 87.668 25.4287C87.668 25.5576 87.5654 25.6689 87.3604 25.7627C87.1611 25.8564 86.9209 25.9326 86.6396 25.9912C86.3584 26.0498 86.0918 26.0908 85.8398 26.1143C85.5879 26.1436 85.4092 26.1582 85.3037 26.1582C84.0674 26.1582 83.1035 25.792 82.4121 25.0596C81.7207 24.3271 81.375 23.3516 81.375 22.1328C81.375 21.3184 81.5332 20.5859 81.8496 19.9355C82.1719 19.2852 82.6348 18.7695 83.2383 18.3887C83.8418 18.0078 84.5654 17.8174 85.4092 17.8174C85.7373 17.8174 86.0918 17.8555 86.4727 17.9316C86.8535 18.002 87.1875 18.1162 87.4746 18.2744C87.5332 18.3037 87.5801 18.3389 87.6152 18.3799C87.6562 18.415 87.6768 18.4678 87.6768 18.5381C87.6768 18.5967 87.6621 18.6553 87.6328 18.7139L87.2285 19.7334C87.1641 19.8975 87.0615 19.9795 86.9209 19.9795C86.8623 19.9795 86.7979 19.9648 86.7275 19.9355C86.5342 19.8711 86.3408 19.8184 86.1475 19.7773C85.9541 19.7305 85.7549 19.707 85.5498 19.707C84.8408 19.707 84.3135 19.9297 83.9678 20.375C83.6279 20.8203 83.458 21.374 83.458 22.0361C83.458 22.6748 83.6191 23.2139 83.9414 23.6533C84.2695 24.0869 84.7764 24.3037 85.4619 24.3037C85.6846 24.3037 85.8984 24.2773 86.1035 24.2246C86.3086 24.1719 86.5137 24.1074 86.7188 24.0312C86.7539 24.0195 86.7891 24.0078 86.8242 23.9961C86.8594 23.9844 86.8975 23.9785 86.9385 23.9785ZM89.3379 26C89.0977 26 88.9775 25.877 88.9775 25.6309C88.9775 25.3086 88.9805 24.9893 88.9863 24.6729C88.998 24.3506 89.0068 24.0283 89.0127 23.7061C89.0244 23.0322 89.0332 22.3584 89.0391 21.6846C89.0449 21.0107 89.0479 20.3369 89.0479 19.6631C89.0479 18.9893 89.0449 18.3154 89.0391 17.6416C89.0332 16.9678 89.0244 16.2939 89.0127 15.6201C89.0068 15.2979 88.998 14.9785 88.9863 14.6621C88.9805 14.3398 88.9775 14.0176 88.9775 13.6953C88.9775 13.4492 89.0977 13.3262 89.3379 13.3262H90.6738C90.8145 13.3262 90.9053 13.3555 90.9463 13.4141C90.9932 13.4727 91.0225 13.5635 91.0342 13.6865C91.0459 13.7627 91.0488 13.8447 91.043 13.9326C91.0371 14.0205 91.0371 14.1055 91.043 14.1875L91.0518 15.3652C91.0576 15.9512 91.0605 16.54 91.0605 17.1318C91.0664 17.7178 91.0693 18.3066 91.0693 18.8984C91.0693 18.9102 91.0693 18.9453 91.0693 19.0039C91.0752 19.0566 91.0957 19.083 91.1309 19.083C91.1602 19.083 91.1895 19.0684 91.2188 19.0391C91.248 19.0098 91.2686 18.9863 91.2803 18.9688C91.9893 18.2012 92.8857 17.8174 93.9697 17.8174C94.4326 17.8174 94.8633 17.9111 95.2617 18.0986C95.6602 18.2803 95.9824 18.5469 96.2285 18.8984C96.4805 19.25 96.6064 19.6719 96.6064 20.1641C96.6064 21.0723 96.6152 21.9834 96.6328 22.8975C96.6562 23.8115 96.668 24.7227 96.668 25.6309C96.668 25.877 96.5479 26 96.3076 26H94.9277C94.7871 26 94.6934 25.9707 94.6465 25.9121C94.6055 25.8535 94.5791 25.7627 94.5674 25.6396C94.5439 25.4404 94.5352 25.2002 94.541 24.9189C94.5527 24.6318 94.5557 24.3828 94.5498 24.1719C94.5439 23.627 94.541 23.085 94.541 22.5459C94.541 22.001 94.541 21.4561 94.541 20.9111C94.541 20.4951 94.4238 20.1846 94.1895 19.9795C93.9551 19.7686 93.6387 19.6631 93.2402 19.6631C92.748 19.6631 92.3438 19.8184 92.0273 20.1289C91.7168 20.4336 91.4854 20.8086 91.333 21.2539C91.1807 21.6992 91.1045 22.1328 91.1045 22.5547C91.1045 23.0703 91.1016 23.5859 91.0957 24.1016C91.0898 24.6113 91.084 25.124 91.0781 25.6396C91.0781 25.8799 90.958 26 90.7178 26H89.3379ZM103.119 14.0469C103.119 13.8008 103.239 13.6777 103.479 13.6777H110.713C110.953 13.6777 111.073 13.8008 111.073 14.0469C111.073 14.2695 111.073 14.5039 111.073 14.75C111.079 14.9902 111.073 15.2217 111.056 15.4443C111.038 15.6787 110.918 15.7959 110.695 15.7959H105.466C105.396 15.7959 105.36 15.8311 105.36 15.9014C105.36 16.3877 105.36 16.877 105.36 17.3691C105.366 17.8555 105.369 18.3418 105.369 18.8281C105.369 18.8984 105.404 18.9336 105.475 18.9336H109.931C110.171 18.9336 110.291 19.0537 110.291 19.2939V20.6738C110.291 20.9141 110.171 21.0342 109.931 21.0342H105.475C105.404 21.0342 105.369 21.0693 105.369 21.1396C105.369 21.6494 105.369 22.1592 105.369 22.6689C105.369 23.1729 105.366 23.6797 105.36 24.1895C105.354 24.4297 105.352 24.6729 105.352 24.9189C105.357 25.1592 105.354 25.3994 105.343 25.6396C105.325 25.8799 105.205 26 104.982 26H103.471C103.23 26 103.11 25.877 103.11 25.6309C103.11 25.3086 103.113 24.9893 103.119 24.6729C103.131 24.3506 103.14 24.0283 103.146 23.7061C103.163 22.3584 103.172 21.0137 103.172 19.6719C103.172 18.7285 103.163 17.791 103.146 16.8594C103.128 15.9219 103.119 14.9844 103.119 14.0469ZM115.591 26.167C114.829 26.167 114.19 25.9854 113.675 25.6221C113.159 25.2588 112.77 24.7783 112.506 24.1807C112.248 23.5771 112.119 22.9238 112.119 22.2207V22.0801C112.131 21.3418 112.283 20.6475 112.576 19.9971C112.875 19.3467 113.306 18.8223 113.868 18.4238C114.431 18.0195 115.11 17.8174 115.907 17.8174C116.399 17.8174 116.856 17.9111 117.278 18.0986C117.706 18.2803 118.104 18.5293 118.474 18.8457C118.515 18.8867 118.55 18.9072 118.579 18.9072C118.649 18.9072 118.682 18.834 118.676 18.6875C118.676 18.541 118.696 18.3945 118.737 18.248C118.784 18.1016 118.901 18.0283 119.089 18.0283H120.328C120.568 18.0283 120.688 18.1484 120.688 18.3887C120.688 18.6406 120.686 18.8926 120.68 19.1445C120.68 19.3965 120.68 19.6484 120.68 19.9004C120.68 20.5449 120.683 21.1924 120.688 21.8428C120.7 22.4932 120.709 23.1406 120.715 23.7852C120.721 24.0898 120.727 24.3975 120.732 24.708C120.744 25.0127 120.75 25.3203 120.75 25.6309C120.75 25.877 120.63 26 120.39 26H119.01C118.852 26 118.749 25.9502 118.702 25.8506C118.655 25.7451 118.635 25.6221 118.641 25.4814C118.646 25.3408 118.646 25.2148 118.641 25.1035C118.641 25.0859 118.638 25.0566 118.632 25.0156C118.626 24.9746 118.608 24.9541 118.579 24.9541C118.556 24.9541 118.532 24.9629 118.509 24.9805C118.491 24.998 118.474 25.0127 118.456 25.0244C118.046 25.3701 117.604 25.6484 117.129 25.8594C116.654 26.0645 116.142 26.167 115.591 26.167ZM116.487 24.2949C116.903 24.2949 117.287 24.21 117.639 24.04C117.996 23.8643 118.274 23.5889 118.474 23.2139C118.485 23.1904 118.512 23.1318 118.553 23.0381C118.6 22.9385 118.623 22.877 118.623 22.8535C118.623 22.6484 118.62 22.4434 118.614 22.2383C118.614 22.0332 118.614 21.8311 118.614 21.6318C118.614 21.5381 118.617 21.4355 118.623 21.3242C118.629 21.207 118.626 21.1045 118.614 21.0166C118.608 20.9756 118.585 20.9141 118.544 20.832C118.509 20.75 118.482 20.6914 118.465 20.6562C118.26 20.2871 117.97 20.0117 117.595 19.8301C117.22 19.6484 116.827 19.5576 116.417 19.5576C115.983 19.5576 115.603 19.666 115.274 19.8828C114.946 20.0996 114.688 20.3867 114.501 20.7441C114.319 21.0957 114.229 21.4824 114.229 21.9043C114.229 22.3262 114.325 22.7188 114.519 23.082C114.712 23.4453 114.979 23.7383 115.318 23.9609C115.664 24.1836 116.054 24.2949 116.487 24.2949ZM124.037 18.0283C124.254 18.0283 124.374 18.1338 124.397 18.3447C124.415 18.4619 124.43 18.5791 124.441 18.6963C124.453 18.8135 124.465 18.9307 124.477 19.0479C124.477 19.0596 124.482 19.0947 124.494 19.1533C124.506 19.2061 124.526 19.2324 124.556 19.2324C124.585 19.2324 124.611 19.2148 124.635 19.1797C124.664 19.1445 124.685 19.1182 124.696 19.1006C125.048 18.6494 125.476 18.3242 125.979 18.125C126.483 17.9258 127.014 17.8262 127.57 17.8262C128.027 17.8262 128.446 17.9229 128.827 18.1162C129.214 18.3037 129.524 18.5732 129.759 18.9248C129.993 19.2705 130.11 19.6836 130.11 20.1641C130.11 21.0723 130.119 21.9834 130.137 22.8975C130.16 23.8115 130.172 24.7227 130.172 25.6309C130.172 25.877 130.052 26 129.812 26H128.432C128.209 26 128.089 25.8799 128.071 25.6396C128.054 25.3877 128.048 25.1357 128.054 24.8838C128.06 24.626 128.06 24.3711 128.054 24.1191C128.048 23.5801 128.045 23.0439 128.045 22.5107C128.045 21.9775 128.045 21.4443 128.045 20.9111C128.045 20.4951 127.925 20.1846 127.685 19.9795C127.444 19.7686 127.125 19.6631 126.727 19.6631C126.229 19.6631 125.818 19.8154 125.496 20.1201C125.18 20.4248 124.942 20.7998 124.784 21.2451C124.632 21.6904 124.556 22.127 124.556 22.5547C124.556 23.0703 124.553 23.5859 124.547 24.1016C124.541 24.6113 124.535 25.124 124.529 25.6396C124.529 25.8799 124.409 26 124.169 26H122.789C122.549 26 122.429 25.877 122.429 25.6309C122.429 25.3027 122.432 24.9775 122.438 24.6553C122.449 24.3271 122.458 24.002 122.464 23.6797C122.481 22.3086 122.49 20.9375 122.49 19.5664V18.3887C122.49 18.1484 122.61 18.0283 122.851 18.0283H124.037ZM132.791 17.9053C132.791 17.4014 132.788 16.9004 132.782 16.4023C132.776 15.8984 132.773 15.3975 132.773 14.8994C132.773 14.6592 132.894 14.5391 133.134 14.5391H134.514C134.754 14.5391 134.874 14.6592 134.874 14.8994C134.874 15.3975 134.871 15.8984 134.865 16.4023C134.865 16.9004 134.865 17.4014 134.865 17.9053C134.865 17.9756 134.903 18.0107 134.979 18.0107H136.359C136.6 18.0107 136.72 18.1309 136.72 18.3711C136.72 18.5527 136.717 18.7373 136.711 18.9248C136.711 19.1064 136.711 19.291 136.711 19.4785C136.711 19.7188 136.591 19.8389 136.351 19.8389H134.979C134.903 19.8389 134.865 19.874 134.865 19.9443C134.865 20.8936 134.868 21.8428 134.874 22.792C134.88 23.7412 134.883 24.6904 134.883 25.6396C134.883 25.8799 134.763 26 134.522 26H133.125C132.885 26 132.765 25.8799 132.765 25.6396C132.765 24.6904 132.768 23.7412 132.773 22.792C132.785 21.8428 132.791 20.8936 132.791 19.9443C132.791 19.8564 132.729 19.8154 132.606 19.8213C132.483 19.8213 132.343 19.8301 132.185 19.8477C132.026 19.8652 131.886 19.8535 131.763 19.8125C131.64 19.7715 131.578 19.6602 131.578 19.4785V18.3711C131.578 18.1309 131.698 18.0107 131.938 18.0107H132.677C132.753 18.0107 132.791 17.9756 132.791 17.9053ZM141.149 26.167C140.388 26.167 139.749 25.9854 139.233 25.6221C138.718 25.2588 138.328 24.7783 138.064 24.1807C137.807 23.5771 137.678 22.9238 137.678 22.2207V22.0801C137.689 21.3418 137.842 20.6475 138.135 19.9971C138.434 19.3467 138.864 18.8223 139.427 18.4238C139.989 18.0195 140.669 17.8174 141.466 17.8174C141.958 17.8174 142.415 17.9111 142.837 18.0986C143.265 18.2803 143.663 18.5293 144.032 18.8457C144.073 18.8867 144.108 18.9072 144.138 18.9072C144.208 18.9072 144.24 18.834 144.234 18.6875C144.234 18.541 144.255 18.3945 144.296 18.248C144.343 18.1016 144.46 18.0283 144.647 18.0283H145.887C146.127 18.0283 146.247 18.1484 146.247 18.3887C146.247 18.6406 146.244 18.8926 146.238 19.1445C146.238 19.3965 146.238 19.6484 146.238 19.9004C146.238 20.5449 146.241 21.1924 146.247 21.8428C146.259 22.4932 146.268 23.1406 146.273 23.7852C146.279 24.0898 146.285 24.3975 146.291 24.708C146.303 25.0127 146.309 25.3203 146.309 25.6309C146.309 25.877 146.188 26 145.948 26H144.568C144.41 26 144.308 25.9502 144.261 25.8506C144.214 25.7451 144.193 25.6221 144.199 25.4814C144.205 25.3408 144.205 25.2148 144.199 25.1035C144.199 25.0859 144.196 25.0566 144.19 25.0156C144.185 24.9746 144.167 24.9541 144.138 24.9541C144.114 24.9541 144.091 24.9629 144.067 24.9805C144.05 24.998 144.032 25.0127 144.015 25.0244C143.604 25.3701 143.162 25.6484 142.688 25.8594C142.213 26.0645 141.7 26.167 141.149 26.167ZM142.046 24.2949C142.462 24.2949 142.846 24.21 143.197 24.04C143.555 23.8643 143.833 23.5889 144.032 23.2139C144.044 23.1904 144.07 23.1318 144.111 23.0381C144.158 22.9385 144.182 22.877 144.182 22.8535C144.182 22.6484 144.179 22.4434 144.173 22.2383C144.173 22.0332 144.173 21.8311 144.173 21.6318C144.173 21.5381 144.176 21.4355 144.182 21.3242C144.188 21.207 144.185 21.1045 144.173 21.0166C144.167 20.9756 144.144 20.9141 144.103 20.832C144.067 20.75 144.041 20.6914 144.023 20.6562C143.818 20.2871 143.528 20.0117 143.153 19.8301C142.778 19.6484 142.386 19.5576 141.976 19.5576C141.542 19.5576 141.161 19.666 140.833 19.8828C140.505 20.0996 140.247 20.3867 140.06 20.7441C139.878 21.0957 139.787 21.4824 139.787 21.9043C139.787 22.3262 139.884 22.7188 140.077 23.082C140.271 23.4453 140.537 23.7383 140.877 23.9609C141.223 24.1836 141.612 24.2949 142.046 24.2949ZM153.19 23.9785C153.272 23.9785 153.334 24.0049 153.375 24.0576C153.422 24.1104 153.46 24.1689 153.489 24.2334C153.513 24.2803 153.56 24.3945 153.63 24.5762C153.7 24.7578 153.765 24.9365 153.823 25.1123C153.888 25.2881 153.92 25.3936 153.92 25.4287C153.92 25.5576 153.817 25.6689 153.612 25.7627C153.413 25.8564 153.173 25.9326 152.892 25.9912C152.61 26.0498 152.344 26.0908 152.092 26.1143C151.84 26.1436 151.661 26.1582 151.556 26.1582C150.319 26.1582 149.355 25.792 148.664 25.0596C147.973 24.3271 147.627 23.3516 147.627 22.1328C147.627 21.3184 147.785 20.5859 148.102 19.9355C148.424 19.2852 148.887 18.7695 149.49 18.3887C150.094 18.0078 150.817 17.8174 151.661 17.8174C151.989 17.8174 152.344 17.8555 152.725 17.9316C153.105 18.002 153.439 18.1162 153.727 18.2744C153.785 18.3037 153.832 18.3389 153.867 18.3799C153.908 18.415 153.929 18.4678 153.929 18.5381C153.929 18.5967 153.914 18.6553 153.885 18.7139L153.48 19.7334C153.416 19.8975 153.313 19.9795 153.173 19.9795C153.114 19.9795 153.05 19.9648 152.979 19.9355C152.786 19.8711 152.593 19.8184 152.399 19.7773C152.206 19.7305 152.007 19.707 151.802 19.707C151.093 19.707 150.565 19.9297 150.22 20.375C149.88 20.8203 149.71 21.374 149.71 22.0361C149.71 22.6748 149.871 23.2139 150.193 23.6533C150.521 24.0869 151.028 24.3037 151.714 24.3037C151.937 24.3037 152.15 24.2773 152.355 24.2246C152.561 24.1719 152.766 24.1074 152.971 24.0312C153.006 24.0195 153.041 24.0078 153.076 23.9961C153.111 23.9844 153.149 23.9785 153.19 23.9785ZM156.662 28.918C156.58 28.918 156.492 28.9033 156.398 28.874C156.305 28.8447 156.258 28.7744 156.258 28.6631C156.258 28.6162 156.264 28.5723 156.275 28.5312C156.293 28.4902 156.311 28.4492 156.328 28.4082C156.551 27.8984 156.779 27.3916 157.014 26.8877C157.254 26.3838 157.485 25.877 157.708 25.3672V25.2881C157.222 24.1631 156.735 23.0381 156.249 21.9131C155.763 20.7881 155.279 19.6602 154.799 18.5293C154.758 18.4355 154.737 18.3535 154.737 18.2832C154.737 18.1719 154.781 18.1016 154.869 18.0723C154.963 18.043 155.051 18.0283 155.133 18.0283H156.671C156.765 18.0283 156.832 18.0488 156.873 18.0898C156.92 18.125 156.964 18.1807 157.005 18.2568C157.104 18.4561 157.192 18.6641 157.269 18.8809C157.351 19.0977 157.43 19.3086 157.506 19.5137C157.711 20.0234 157.91 20.5361 158.104 21.0518C158.303 21.5615 158.511 22.0684 158.728 22.5723C158.739 22.5898 158.754 22.6162 158.771 22.6514C158.789 22.6807 158.81 22.6953 158.833 22.6953C158.856 22.6953 158.877 22.6807 158.895 22.6514C158.912 22.6221 158.924 22.5986 158.93 22.5811C159.164 22.0771 159.39 21.5674 159.606 21.0518C159.823 20.5303 160.043 20.0146 160.266 19.5049C160.354 19.2998 160.438 19.0889 160.521 18.8721C160.608 18.6494 160.705 18.4385 160.811 18.2393C160.893 18.0986 161.004 18.0283 161.145 18.0283H162.234C162.322 18.0283 162.41 18.043 162.498 18.0723C162.586 18.1016 162.63 18.1719 162.63 18.2832C162.63 18.3535 162.609 18.4355 162.568 18.5293C162.141 19.5723 161.704 20.6123 161.259 21.6494C160.819 22.6865 160.383 23.7266 159.949 24.7695C159.768 25.209 159.583 25.6455 159.396 26.0791C159.214 26.5186 159.029 26.9551 158.842 27.3887C158.748 27.6055 158.654 27.8252 158.561 28.0479C158.473 28.2705 158.379 28.4873 158.279 28.6982C158.209 28.8447 158.098 28.918 157.945 28.918H156.662Z" fill="#EE3771"/>
<defs>
<linearGradient id="paint0_linear_97_2188" x1="20.0274" y1="8.35059" x2="20.0274" y2="32.2403" gradientUnits="userSpaceOnUse">
<stop stop-color="#FFA9E8"/>
<stop offset="1" stop-color="#F6132E"/>
</linearGradient>
</defs>
</svg>
